<svg id="anchor" xmlns="http://www.w3.org/2000/svg" viewBox="0 0 64.55 84.14"><defs><style>.cls-1{fill:#f2c8dd;}.cls-2{fill:#a3ddee;}.cls-2,.cls-3,.cls-4{stroke:#9e2062;stroke-miterlimit:10;}.cls-3{fill:#fff;}.cls-4{fill:#a4dded;}</style></defs><title>Anchor</title><g id="bubble"><circle class="cls-1" cx="18.77" cy="13.45" r="13.45"/><circle class="cls-1" cx="11.06" cy="29.38" r="7.71"/></g><g id="upanchor"><circle id="biganchor" class="cls-2" cx="32.02" cy="15.3" r="9.14"/><circle id="smallanchor" class="cls-3" cx="32.16" cy="15.44" r="4.19"/><rect id="middleanchor" class="cls-4" x="17.62" y="23.38" width="29.08" height="4.34"/></g><path id="downanchor" class="cls-4" d="M29,27.72,28,67.09c-5.1,7.06-15.52,2.37-17-10.53l4.45-.47L5.54,43.66.74,59,5.31,58c1.84,11.31,9.27,17.88,20.75,21l6.1,4.57,6.68-4.68C50.23,75.38,57.26,68.57,59.36,58l4.46.71L58.89,43.78,49.4,55.62l4.33,1.06c-3,12.31-9.49,17.45-17.38,10.41l-1-39.37Z"/></svg>
