<svg id="hat" xmlns="http://www.w3.org/2000/svg" viewBox="0 0 81.54 72.51"><defs><style>.cls-1{fill:#fce7b5;}.cls-2{fill:#a4dded;}.cls-2,.cls-3,.cls-4,.cls-6{stroke:#9e2062;}.cls-2,.cls-3,.cls-4,.cls-6,.cls-7{stroke-miterlimit:10;}.cls-3{fill:#d0edf5;}.cls-4,.cls-7{fill:none;}.cls-5{fill:#ffdfa1;}.cls-6{fill:#fff;}.cls-7{stroke:#ffdfa1;}</style></defs><title>captainhat</title><g id="bubble"><circle class="cls-1" cx="17.73" cy="15.46" r="15.46"/><circle class="cls-1" cx="8.87" cy="33.78" r="8.87"/></g><path id="uphat" class="cls-2" d="M19.58,49.39C1,39.49,5.69,19.41,39.43,12.16H51.56c31.1,5.44,38.21,27.61,18.38,37.23Z"/><g id="downhat"><path class="cls-3" d="M19.58,44.44V60.3c7.83,14.92,41.79,16.3,50.36,0V44.44C53,39.18,36.18,39,19.58,44.44Z"/><path class="cls-4" d="M19.58,52.88a96.65,96.65,0,0,0,50.36,0"/><circle class="cls-5" cx="23.85" cy="48.61" r="1.46"/><circle class="cls-5" cx="65.53" cy="48.61" r="1.46"/></g><g id="symbolhat"><circle class="cls-6" cx="44.98" cy="27.1" r="8.79"/><circle class="cls-5" cx="44.92" cy="23.07" r="1.75"/><path class="cls-7" d="M39.52,28c1.54,8.19,10.1,6.46,10.78,0"/><line class="cls-7" x1="44.92" y1="24.82" x2="44.92" y2="33.56"/></g></svg>