<svg id="compass" xmlns="http://www.w3.org/2000/svg" viewBox="0 0 67.69 70.04"><defs><style>.cls-1{fill:#fce7b5;}.cls-2{fill:#a4dded;}.cls-2,.cls-3,.cls-6{stroke:#9e2062;stroke-miterlimit:10;}.cls-3{fill:#fff;}.cls-4{fill:#f69b9d;}.cls-5{fill:#a5ddef;}.cls-6{fill:none;}</style></defs><title>compass</title><g id="bubble"><circle class="cls-1" cx="15.29" cy="13.33" r="13.33"/><circle class="cls-1" cx="7.64" cy="29.13" r="7.64"/></g><circle id="bigcompass" class="cls-2" cx="38.87" cy="41.22" r="28.32"/><circle id="smallcompass" class="cls-3" cx="38.9" cy="41.25" r="21.47"/><g id="direct"><path class="cls-4" d="M33.61,42.63,26.66,52.91l9.88-6.85c3.85,1,8.54-1.74,8.06-7.46l6.65-10.07L41.07,35.48C35.93,33.47,32.1,39.51,33.61,42.63Z"/><circle class="cls-5" cx="38.8" cy="40.87" r="2.27"/><line class="cls-6" x1="38.9" y1="19.78" x2="38.8" y2="25.51"/><line class="cls-6" x1="54.07" y1="41.22" x2="60.38" y2="41.25"/><line class="cls-6" x1="38.8" y1="57.65" x2="38.9" y2="62.73"/><line class="cls-6" x1="22.83" y1="40.87" x2="17.43" y2="40.87"/></g><path id="upcompass" class="cls-3" d="M33.25,13.46c-1.88-8.07,11.24-9.63,11.24,0A28.54,28.54,0,0,0,33.25,13.46Z"/></svg>