<svg id="diving_suit" data-name="diving suit" xmlns="http://www.w3.org/2000/svg" viewBox="0 0 84.53 67.37"><defs><style>.cls-1{fill:#f8bdcc;}.cls-2{fill:#e0e998;}.cls-2,.cls-3,.cls-4,.cls-5,.cls-6,.cls-7,.cls-8{stroke:#9e2062;stroke-miterlimit:10;}.cls-3{fill:#f69b9e;}.cls-4{fill:#d0edf5;}.cls-5{fill:none;}.cls-6{fill:#dcb9a3;}.cls-7{fill:#ffdfa1;}.cls-8{fill:#f6999c;}</style></defs><title>diving_suit</title><g id="bubble"><circle class="cls-1" cx="15.29" cy="13.33" r="13.33"/><circle class="cls-1" cx="7.64" cy="29.13" r="7.64"/></g><g id="glass"><path class="cls-2" d="M19.31,24.3h45.2c3.91.76,5.51,3.34,6.08,6.73V42.55c-5.87,11.74-20.42,8.31-28.9,0-9.6,11.06-24.55,10.87-27.38,0V30C14.44,27.33,15.54,25.18,19.31,24.3Z"/><polygon class="cls-3" points="33 25.39 33 28.64 39.08 33.64 46.04 33.64 50.82 28.43 50.82 24.3 33 24.3 33 25.39"/><path class="cls-4" d="M22.19,28.24a8.27,8.27,0,0,0-4.08,4.53l.45,8.89c4.17,9.8,13.79,6.44,20.14-3.36V31.59c-.84-1.61-2.87-2.51-5.7-2.95Z"/><path class="cls-4" d="M62.28,29l-11.46-.54c-3.22.49-4.72,2.3-4.78,5.21v3.9C48.13,47.92,60,50,65.72,41.66V32.23C65.12,30.27,64.11,29,62.28,29Z"/><path class="cls-5" d="M22.19,35.4s1.45-2.54,3.44-2.9a10.82,10.82,0,0,1,3.72,0"/><path class="cls-5" d="M55.88,32.34c4.67,0,6.35,0,6.4,3.06"/></g><g id="snorkel"><path class="cls-6" d="M75.7,13.27h6.44c2.11,0,2.9-5.71,0-5.71h-7C71.62,7.92,72.25,13.27,75.7,13.27Z"/><path class="cls-7" d="M51.39,59.26l14.33.36C73.51,57.73,76,53.54,76.43,47.54L75.7,13.27h5.53v37.5c-1,8.28-6.47,12.62-15.51,13.84l-14.33-.37Z"/><path class="cls-8" d="M33,58.35v5.8c.31,1.35,1.43,2.2,3.07,2.72H49.31a3,3,0,0,0,2.08-2.63v-5c-1.26-5.17-3.94-4.51-7.52-.09H40.33C37.13,54.63,34.72,54.55,33,58.35Z"/></g></svg>