<svg id="lighthouse" xmlns="http://www.w3.org/2000/svg" viewBox="0 0 43.33 91.89"><defs><style>.cls-1{fill:#f2c8dd;}.cls-2{fill:#a4dded;}.cls-2,.cls-3,.cls-4,.cls-5,.cls-6,.cls-7,.cls-8{stroke:#9e2062;stroke-miterlimit:10;}.cls-3{fill:#f69b9e;}.cls-4{fill:#d0edf5;}.cls-5{fill:#dcb9a3;}.cls-6{fill:#e9f0bd;}.cls-7{fill:#dfe99c;}.cls-8{fill:#ffdfa1;}</style></defs><title>lighthouse</title><g id="bubble"><circle class="cls-1" cx="15.29" cy="13.33" r="13.33"/><circle class="cls-1" cx="7.64" cy="29.13" r="7.64"/></g><g id="house"><rect class="cls-2" x="19.14" y="17.81" width="18.43" height="13.86"/><circle class="cls-3" cx="28.9" cy="24.46" r="3.43"/><path class="cls-4" d="M19.14,17.81c-.41-10.3,17.28-12.06,18.43,0Z"/><polygon class="cls-5" points="13.33 86.52 19.14 31.66 37.57 31.66 42.78 86.52 13.33 86.52"/><rect class="cls-6" x="13.33" y="86.52" width="29.45" height="4.86"/><path class="cls-7" d="M24.74,86.11H32.5V78.05c.5-4-7.76-4.18-7.76,0Z"/><polygon class="cls-8" points="14.69 73.68 40.39 61.34 39.34 50.29 15.93 61.99 14.69 73.68"/><polygon class="cls-8" points="38.23 38.64 17.26 49.39 15.93 61.99 39.34 50.29 38.23 38.64"/></g></svg>