<svg id="octopus" xmlns="http://www.w3.org/2000/svg" viewBox="0 0 79.89 82.8"><defs><style>.cls-1{fill:#d0edf5;}.cls-2{fill:#f8bdcc;}.cls-2,.cls-3,.cls-4,.cls-5{stroke:#9e2062;stroke-miterlimit:10;}.cls-3{fill:#fff;}.cls-4{fill:#f69b9e;}.cls-5{fill:none;}</style></defs><title>octopus</title><g id="bubble"><circle class="cls-1" cx="22.6" cy="10.45" r="10.45"/><circle class="cls-1" cx="16.61" cy="22.84" r="5.99"/></g><g id="octopus-2" data-name="octopus"><path class="cls-2" d="M26.5,40.44c-23.73-46,51.71-45.29,26.6,0-2,8.69,14.4,7.53,15.47,2.61s-4-5.54-5.35-1.3c-1.48-6.15,7.62-8.85,9.82-.37,2.53,5.07-4.67,9.72-12.3,13.1L60.58,58c1.06,5.13,15.47,3.42,14.46-2.24-1.78-3.84-3.87-3.87-6.23-.56-.94-5,7.37-8.19,10.22.08,1.38,5.7-1.29,9.23-7.34,10.95l-9.35-.4c-9.67-2.28-9.43,9.45-2.23,9.9,9.35.77,5.56-10.34,1.35-3.32-.67-2.69,1.07-4.64,4.08-4s3.54,2.33,3.27,4.55c-.71,5.13-3.38,9.68-13.34,9.35C46.88,68,34,65.38,25,82.29c-3.11-.12-5.23,0-5.23,0-6.28-.9-9.85-3.53-9.18-8.87,1.64-5.07,5.93-6.44,8.46-3.27-3-.57-4.7.11-3.83,3.11-.17,5.2,9.36,3.13,9.27-2.87-.18-2.83-1.53-4.65-4.64-5L6.12,66C2.52,64.65.23,62.62.53,59.19V53.68c1-2.88,3-4.57,6.46-4.16,4.25,1,4.83,3.45,3.44,6.63-.76-3.8-2.54-4.7-5.59-2l.32,3.51c.77,2.16,2.54,3.25,5.51,3l6.63-.23q4.08-2.61,1.43-7.19a17.15,17.15,0,0,1-12-8.47l.16-4.37c.9-3.18,3-4.73,6.55-4.25,2.69,1.12,3.55,3.17,3.2,5.83-4.6-8.82-10.65,2.78-1,4.47l7.19-.08C25.53,44.86,27,42.93,26.5,40.44Z"/><circle class="cls-3" cx="48.61" cy="24.79" r="3.8"/><circle class="cls-3" cx="52.35" cy="17.96" r="1.61"/><circle class="cls-3" cx="47.42" cy="15.61" r="1.19"/><path class="cls-4" d="M25.47,51.15c-1.42,4.64.65,7.46,4.39,9.41C31.39,58.06,30.28,51.39,25.47,51.15Z"/><path class="cls-4" d="M49.5,61c-1.41-4.44-.35-7.86,4.27-9.83C55.7,54.08,53.13,61,49.5,61Z"/><path class="cls-5" d="M25.47,51.15a12.93,12.93,0,0,0,1-10.71"/><path class="cls-5" d="M53.1,40.44a10.87,10.87,0,0,0,.67,10.71"/><path class="cls-5" d="M25,22.38C25.77,16,28.77,12,34.89,11.22"/></g></svg>