<svg id="oxygen" xmlns="http://www.w3.org/2000/svg" viewBox="0 0 97.11 84.7"><defs><style>.cls-1{fill:#fce7b5;}.cls-2{fill:#e0e99b;}.cls-10,.cls-2,.cls-3,.cls-4,.cls-5,.cls-6,.cls-7,.cls-8,.cls-9{stroke:#9e2062;stroke-miterlimit:10;}.cls-3{fill:#f69b9e;}.cls-4{fill:#f8bdcc;}.cls-5{fill:#a4dded;}.cls-6{fill:#d0edf5;}.cls-7{fill:#dcb9a3;}.cls-8{fill:#ffdfa1;}.cls-9{fill:#fff;}.cls-10{fill:none;}</style></defs><title>oxygen</title><g id="bubble"><circle class="cls-1" cx="12.93" cy="11.27" r="11.27"/><circle class="cls-1" cx="6.46" cy="24.63" r="6.46"/></g><g id="oxygen2"><path class="cls-2" d="M10.87,28.45V78.79c1,6.7,24.37,7.71,25.73,0V26.93c-2.77-4.12-5.67-6.7-9.61-10.13H21.76A49.19,49.19,0,0,0,10.87,28.45Z"/><rect class="cls-3" x="21.76" y="9.01" width="5.22" height="3.35"/><rect class="cls-4" x="21.76" y="12.36" width="5.22" height="4.44"/><rect class="cls-5" x="10.87" y="31.82" width="25.73" height="5.18"/><rect class="cls-6" x="10.87" y="51.67" width="25.73" height="4.98"/><rect class="cls-5" x="10.87" y="56.65" width="25.73" height="10.17"/></g><g id="oxygen1"><path class="cls-2" d="M37.36,26.9V78.79c1,6.7,24.37,7.71,25.73,0V26.93c-2.77-4.12-6.33-6.85-10.27-10.28H47.64A41.53,41.53,0,0,0,37.36,26.9Z"/><rect class="cls-3" x="47.64" y="9.01" width="5.18" height="3.35"/><rect class="cls-4" x="47.64" y="12.88" width="5.18" height="3.77"/><rect class="cls-5" x="37.36" y="31.82" width="25.73" height="5.18"/><rect class="cls-6" x="37.36" y="51.67" width="25.73" height="4.98"/><rect class="cls-5" x="37.36" y="56.65" width="25.73" height="10.17"/></g><g id="air"><path class="cls-7" d="M84.18,46c-3.19,2.19-2.78,6.31,0,7.27H94.41c2.38-.86,3.44-5.64,0-7.27Z"/><circle class="cls-8" cx="73.91" cy="38.28" r="6.45"/><circle class="cls-9" cx="73.51" cy="38.53" r="1.53"/><rect class="cls-8" x="57.66" y="11.64" width="4.71" height="2.59" rx="1.23"/><rect class="cls-8" x="11.86" y="11.82" width="4.73" height="2.12" rx="1.06"/><path class="cls-10" d="M89.27,53.24l.48,13.59c-.48,8.16-15.84,7-16.24,0l.4-22.1"/><path class="cls-10" d="M73.91,31.82c.35-10.34-1.28-18.73-11.53-18.63"/><line class="cls-10" x1="57.66" y1="12.68" x2="16.59" y2="13.01"/></g></svg>