<svg id="sea_snail" xmlns="http://www.w3.org/2000/svg" viewBox="0 0 73.15 62.84"><defs><style>.cls-1{fill:#d0edf5;}.cls-2{fill:#f8bdcc;}.cls-2,.cls-3,.cls-4{stroke:#9e2062;stroke-miterlimit:10;}.cls-3{fill:#f69b9e;}.cls-4{fill:none;}</style></defs><title>seasnail</title><g id="bubble"><circle class="cls-1" cx="13.02" cy="11.35" r="11.35"/><circle class="cls-1" cx="6.51" cy="24.8" r="6.51"/></g><g id="snail"><path class="cls-2" d="M26.38,59.62H54c3.4-2.22,3.9-4.8,2.94-7.57-4.6,1.43-9.27,4.72-14,8.82-2.14,1.91-4.23,2-6.25,0-4.64-4.4-9.33-7.56-14.14-8.69C21.38,55.07,22.3,57.6,26.38,59.62Z"/><path class="cls-3" d="M36.11,60.15c-6.79-6.33-13.88-9.21-21.26-8.76-6.64-3.29-10.13-7.77-6.47-15-3-6.68-.42-11.68,7.76-14.94.87-6.81,5.23-10.07,13.51-9.34,6.27-7.39,12.92-7.59,20,0C58.19,11.84,63,15,63.84,21.93c7.71,3.35,11.31,7.93,6.9,15,3.26,6,.93,10.63-6.47,14.08-7.72-.25-14.63,4-21.26,9.91C40.34,63.2,38.09,62.6,36.11,60.15Z"/><path class="cls-4" d="M27,46.45c-5.95-5.76-12.15-9.2-18.62-10"/><path class="cls-4" d="M31.62,43.6C27.06,35,22.11,27.15,16.14,21.5"/><path class="cls-4" d="M36.66,42.34c-1-11.18-2.92-21.62-7-30.18"/><path class="cls-4" d="M43.63,42.34a137.38,137.38,0,0,1,6-30.18"/><path class="cls-4" d="M48.34,43.6a74.9,74.9,0,0,1,15.5-21.67"/><path class="cls-4" d="M53,46c5.85-4.75,11.77-8.19,17.78-9.15"/></g></svg>