<svg id="ship" xmlns="http://www.w3.org/2000/svg" viewBox="0 0 85.7 76.91"><defs><style>.cls-1{fill:#f8bdcc;}.cls-2{fill:#dfe99c;}.cls-2,.cls-3,.cls-4,.cls-5,.cls-6,.cls-7,.cls-8{stroke:#9e2062;stroke-miterlimit:10;}.cls-3{fill:none;}.cls-4{fill:#fedb8f;}.cls-5{fill:#eaf0bd;}.cls-6{fill:#a4dded;}.cls-7{fill:#dcb9a3;}.cls-8{fill:#ffdfa1;}</style></defs><title>ship</title><g id="bubble"><circle class="cls-1" cx="15.29" cy="13.33" r="13.33"/><circle class="cls-1" cx="7.64" cy="29.13" r="7.64"/></g><g id="downship"><path id="downship-2" data-name="downship" class="cls-2" d="M2.19,54H84.82C77.39,66.44,67.19,75,51.89,76.41H14.62C7.68,74.41,4.31,65.44,2.19,54Z"/><path class="cls-3" d="M33.87,70.21s-15.08.51-17.4.51-5.25-9.49-5.25-9.49"/><path class="cls-3" d="M60.46,68q6.25.3,12.51-8.67"/></g><g id="bodyship"><path class="cls-4" d="M24.7,26.92H39.59c2.68.29,3.47,2.15,3.44,4.71v7H24.7Z"/><path class="cls-5" d="M9.89,54V38.66H62.41c3.86.82,5.34,3.33,5.46,6.81V54Z"/></g><g id="window"><circle class="cls-6" cx="34.45" cy="46.32" r="3.28"/><circle class="cls-6" cx="45.38" cy="46.32" r="3.28"/><circle class="cls-6" cx="56.31" cy="46.32" r="3.28"/></g><g id="smoke"><rect class="cls-7" x="17.38" y="19.36" width="7.32" height="34.66"/><path class="cls-8" d="M17.38,19.36c-1.35-7.45,8.44-7.65,7.32,0Z"/></g></svg>